<?xml version="1.0" encoding="utf-8"?>
<!-- Generator: Adobe Illustrator 21.1.0, SVG Export Plug-In . SVG Version: 6.00 Build 0)  -->
<svg version="1.1" id="Layer_1" xmlns="http://www.w3.org/2000/svg" xmlns:xlink="http://www.w3.org/1999/xlink" x="0px" y="0px"
	 viewBox="0 0 520 600" style="enable-background:new 0 0 520 600;" xml:space="preserve">
<style type="text/css">
	.st0{fill:#82BAE0;}
	.st1{fill:#B9EE7D;}
	.st2{fill:#999999;}
	.st3{fill:#EEEEEE;}
	.st4{fill:none;}
	.st5{enable-background:new    ;}
</style>
<g transform="translate(-5690.493347167969, -9171.917022705078) scale(23,23)">
	<g>
		<path id="P270033115" class="st0" d="M262.1,399.1l-0.4,0.9l-1.4,0l0-0.8l0.5,0L262.1,399.1z"/>
		<path id="P270531650" class="st0" d="M258.2,414.5l-0.7-0.4l0-0.8l-0.4-0.1l1.2-0.3l0.3,0.7L258.2,414.5z"/>
		<path id="P270530975" class="st0" d="M264.9,418.3l0.3,0l0.1,0l0.2,0.8l0.8,0.1l0,0.5l0,0.7l-1.3,1.5l0.1,0.2l-3.1,0.1l0,0l0-1.2
			l0-0.2l0-1.1l-0.3,0l0.3-0.5l0.9-0.1l0.6,0l0.4,0.3l0.5-0.3l0-0.8L264.9,418.3z"/>
		<path id="P270532845" class="st0" d="M254.1,414.7l-0.6,0.5l-1.2,0.1l0-0.6l0.6-0.2l1.2-0.4L254.1,414.7z"/>
		<path id="P270532585" class="st0" d="M258.1,420.8l0.8-0.3l0.5,0.3l0,0.6l-0.7,0.2l0,0.5l-0.6,0L258.1,420.8z"/>
		<path id="P270030830" class="st1" d="M262.1,404.6l0.6,0l0,1l-0.7,0l0.1-0.6l-0.6-0.2l0-0.2L262.1,404.6z"/>
		<path id="P270531025" class="st0" d="M253.4,410.6l0,1.1l0.6,0l0,1.1l-0.6,0l-1,0l-0.3-0.6l0-0.4l-0.1-1.2L253.4,410.6z"/>
		<path id="P270530205" class="st1" d="M259.3,404l-0.2,1l-0.6-0.3L258,405l-0.6,0l0.2-1.1l-0.6-0.2l-0.2-0.5l1.6-0.1L259.3,404z"/>
		<path id="P270532295" class="st0" d="M253.3,408.4l0.3,0l0.1,0l0,0.2l-1.1,0.5l-0.5,0.7l-0.2,0l0-1.3L253.3,408.4z"/>
		<path id="P270031705" class="st0" d="M261.6,400.6l1,0l0,1.2l-1,0l-0.3-1.2L261.6,400.6z"/>
		<path id="P270032005" class="st0" d="M261.5,405l0,0.6L261.5,405z"/>
		<path id="P271230530" class="st1" d="M264,406.2l0,0.6l-1.2,0.1l0-1.3l0.5,0l0,0.6L264,406.2z"/>
		<path id="P270531135" class="st1" d="M251.1,416.6l0.3,0.8l0.6-0.1l-0.5,0.6l0,0.8l-0.5,0l0-0.5l-0.5-1.4l0.2-0.3l0.3-0.1
			L251.1,416.6z"/>
		<path id="P270532765" class="st0" d="M264,408.2l0,1.3l-0.6,0l0-0.6l-0.6,0l0-0.5l0-0.5l0.9,0l0.3-0.3L264,408.2z"/>
		<path id="P270532655" class="st1" d="M256.8,406.7l0.3,0.8l0,0.8l0,0.8l-0.7-0.9l-0.3-0.4l0.3-0.5l-0.4-0.6L256.8,406.7z"/>
		<path id="P270530585" class="st1" d="M255.1,404.5l0.6,0l0,0.5l0,1l-0.8,0l-0.4-0.5l-0.5-0.9L255.1,404.5z"/>
		<path id="P270532610" class="st1" d="M261.9,420.8l0,0.2l-0.5,0.4l-0.7,0l0-0.8L261.9,420.8z"/>
		<path id="P270532605" class="st1" d="M261,419.7l0.5,0l0.3,0l0,1.1l-1.3-0.1l0-1L261,419.7z"/>
		<path id="P270532615" class="st1" d="M262,422.2l-1.3,0l-0.4,0l0.4-0.8l0.7,0l0.5-0.4L262,422.2z"/>
		<path id="P270532595" class="st1" d="M260.7,421.5l-0.4,0.8l-0.9,0l-0.6,0l0-0.3l0-0.5l0.7-0.2L260.7,421.5z"/>
		<path id="P270532600" class="st1" d="M260.6,420.7l0,0.8l-1.3-0.1l0-0.6L260.6,420.7z"/>
		<path id="P270532590" class="st1" d="M260.6,420.7l-1.2,0l-0.5-0.3l0-0.6l1.2-0.1l0.6,0L260.6,420.7z"/>
		<path id="P270532580" class="st1" d="M258.1,420.8l0,1.3l0.6,0l0,0.3l-1.3,0l0-1l0-0.6L258.1,420.8z"/>
		<path id="P270532575" class="st0" d="M258.9,420.4l-0.8,0.3l-0.6,0l0-1l1.4,0L258.9,420.4z"/>
		<path id="P270530870" class="st1" d="M256.7,416.3l0,0.7l0,0.2l0,0.5l0,0.2l-0.7-0.6l0-1L256.7,416.3z"/>
		<path id="P270530920" class="st0" d="M257.3,418.5l0.2,0l0,0.6l0,0.6l-0.6,0.4l0-1l0-0.6L257.3,418.5z"/>
		<path id="P270530895" class="st0" d="M256.8,419.2l0,1l-1.3-0.2l0-0.4l0-0.5l0.4,0.3L256.8,419.2z"/>
		<path id="P270530890" class="st0" d="M256.8,418.6l0,0.6l-0.9,0.2l-0.4-0.3l0-0.5L256.8,418.6z"/>
		<path id="P270530865" class="st0" d="M256.8,417.9l0,0.6l-1.3,0l-0.1-0.4l-0.2-0.9l0.3,0.1l0.6,0L256.8,417.9z"/>
		<path id="P270532865" class="st1" d="M256.7,413.2l0,0.1l-1,0.3l-1.6,0.5l0-0.3l0.7-0.4l0.2-0.6l0.4,0l0.4,0.4L256.7,413.2z"/>
		<path id="P270532850" class="st1" d="M252.2,412.2l0.3,0.6l0.1,1.4l0.3,0.2l-0.6,0.2l0-0.4l0-0.9l-0.3-0.8l-0.4-0.5L252.2,412.2z"
			/>
		<path id="P270532855" class="st0" d="M253.5,412.9l0.6,1l0,0.3l-1.2,0.4l-0.3-0.2l-0.1-1.4L253.5,412.9z"/>
		<path id="P270532860" class="st1" d="M254.1,413.8l-0.6-1l0.6,0l0.9,0l-0.2,0.6L254.1,413.8z"/>
		<path id="P270532820" class="st0" d="M256.7,416.2l0,0.2l-0.6,0l0,1l-0.6,0l-0.1-0.9l0.8-0.4l0.5-0.5L256.7,416.2z"/>
		<path id="P270532810" class="st0" d="M255.4,416.4l-0.3,0.1l-0.5-0.8l0.9-0.5l0,0.2L255.4,416.4z"/>
		<path id="P270532805" class="st1" d="M255.5,415.2l-0.9,0.5l0.3-1l0.6,0.1L255.5,415.2z"/>
		<path id="P270532815" class="st0" d="M255.4,416.4l0.1-0.9l1.2-0.5l0,0.4l-0.5,0.5L255.4,416.4z"/>
		<path id="P270532800" class="st1" d="M256.7,414.8l0,0.2l-1.2,0.5l0-0.2l0-0.4L256.7,414.8z"/>
		<path id="P270532790" class="st0" d="M256.7,413.8l0,1l-1.2,0l0.2-1.2l1-0.3L256.7,413.8z"/>
		<path id="P270532795" class="st1" d="M254.9,414.7l-0.8,0l0-0.6l1.6-0.5l-0.2,1.2L254.9,414.7z"/>
		<path id="P270532825" class="st1" d="M253.2,416l0.3-0.1l0.7-0.2l0.5,0l0.5,0.8l0.3-0.1l0.1,0.9l-0.3-0.1l-0.4,0l-0.6,0l-0.5-0.5
			L253.2,416z"/>
		<path id="P270532840" class="st1" d="M254.2,415.8l-0.1-1l0.8,0l-0.3,1L254.2,415.8z"/>
		<path id="P270532835" class="st1" d="M254.2,415.8l-0.7,0.2l0-0.7l0.6-0.5L254.2,415.8z"/>
		<path id="P270532830" class="st0" d="M253.2,416l-0.7,0.1l-0.3-0.3l0-0.4l1.2-0.1l0,0.7L253.2,416L253.2,416z"/>
		<path id="P270531020" class="st0" d="M252.3,409.7l1.1,0l0,1l-1.3,0l0-0.9L252.3,409.7z"/>
		<path id="P270531015" class="st0" d="M253.7,409.7l0.1,0.8l0.8,0.1l0,1l-0.6,0.1l-0.6,0l0-1.1l0-1L253.7,409.7z"/>
		<path id="P270531005" class="st0" d="M255.3,409.6l0.1,2l-0.7,0l0-1l-0.8-0.1l-0.1-0.8l0.3,0L255.3,409.6z"/>
		<path id="P270530985" class="st0" d="M256.2,408.7l0,1l1,0l0,1.1l0,0.2l-1.3,0l-0.1-2.2L256.2,408.7z"/>
		<path id="P270530990" class="st0" d="M255.3,408.8l0.7,0l0.1,2.2l1.3,0l0,0.7l0,0.3l-0.6,0.3l-0.2-0.6l-1.1,0l-0.1-2L255.3,408.8z
			"/>
		<path id="P270531000" class="st0" d="M256.6,412.2l0,0.6l0,0.3l-0.9,0l-0.4-0.4l0-1.2l1.1,0L256.6,412.2z"/>
		<path id="P270531010" class="st0" d="M255.3,411.6l0,1.2l-0.4,0l-0.9,0l0-1.1l0.6-0.1L255.3,411.6z"/>
		<path id="P270532645" class="st0" d="M256.2,407.7l-1.4-0.1l0.4-0.5l0-0.4l0.6-0.1l0.3,0l0.4,0.6L256.2,407.7z"/>
		<path id="P270532665" class="st1" d="M256.2,407.7l0.3,0.4l-0.3,0.3l-1,0l-0.4-0.8L256.2,407.7z"/>
		<path id="P270532675" class="st1" d="M256.5,408.1l0.7,0.9l0,0.6l-1,0l0-1l0-0.3L256.5,408.1z"/>
		<path id="P270530557" class="st0" d="M254,409l-1.3,0l1.1-0.5l0.2,0l0,0.2L254,409z"/>
		<path id="P270530567" class="st1" d="M254,408.5l-0.2,0l0-0.2l0.2,0L254,408.5z M253.7,408.4l-0.3,0l0-0.2L253.7,408.4z
			 M254.6,407.4l-0.6,0l-0.1-0.3l0.7,0L254.6,407.4z"/>
		<path id="P270530555" class="st1" d="M254,409L254,409l-0.3,0.3l-1-0.3L254,409z"/>
		<path id="P270530550" class="st0" d="M255.3,408.8l0,0.9l-1.3,0l0-0.6l0-0.1l0-0.3l0.6,0L255.3,408.8z"/>
		<path id="P270530565" class="st1" d="M254.6,408.7l-0.6,0l0-0.2l0-0.2l0-1l0.6,0L254.6,408.7z"/>
		<path id="P270530560" class="st1" d="M255.2,407.1l-0.4,0.5l0.4,0.8l1,0l0,0.3l-0.3,0l-0.7,0l-0.7-0.1l0-1.3l0-0.3L255.2,407.1z"
			/>
		<path id="P270530575" class="st1" d="M254.5,405.8l0.1,0.9l0,0.3l-0.7,0l-0.1-0.6l0-0.7L254.5,405.8z"/>
		<path id="P270530577" class="st1" d="M255.2,406.7l0,0.4l-0.6-0.1l0-0.3L255.2,406.7z"/>
		<path id="P270530590" class="st0" d="M254.6,405.5l-0.1,0.4l-0.8-0.1l-0.5-0.5l0.6-0.7l0.3,0L254.6,405.5z"/>
		<path id="P270530570" class="st1" d="M254.6,405.5l0.4,0.5l0.8,0l0,0.7l-0.6,0.1l-0.6,0l-0.1-0.9L254.6,405.5z"/>
		<path id="P270532290" class="st0" d="M254,409.1l0,0.6l-0.3,0l-0.3,0l-1.1,0l0.5-0.7l1,0.3L254,409.1z"/>
		<path id="P270532320" class="st0" d="M252,406.5l0-1.2l0.8,0l-0.1,1.2L252,406.5z"/>
		<path id="P270532330" class="st0" d="M253.2,405.2l-0.5,0.1l-0.8,0l0-0.7l1.9-0.1L253.2,405.2z"/>
		<path id="P270532335" class="st1" d="M253.7,405.7l0,0.7l-0.5,0l-0.6,0l0.1-1.2l0.5-0.1L253.7,405.7z"/>
		<path id="P270532310" class="st0" d="M253.3,406.5l0,1l-1.3,0l0-0.9l0.6,0L253.3,406.5z"/>
		<path id="P270532300" class="st0" d="M253.3,407.4l0,0.8l0,0.2l-1.3,0l0-1L253.3,407.4z"/>
		<path id="P270532315" class="st1" d="M253.7,406.5l0.1,0.6l0.1,0.3l0,1l-0.2,0l-0.1,0l-0.3-0.2l0-0.8l0-1L253.7,406.5z"/>
		<path id="P270530225" class="st1" d="M257.3,405l0,0.7l-0.3,0.7l-0.2,0.3l-0.7,0l-0.3,0l0-0.7l0-1l0.9-0.1L257.3,405z"/>
		<path id="P270530200" class="st1" d="M259.1,405l0.2,0.6l-1.1,0l-0.9,0l0-0.7l0.6,0l0.6-0.3L259.1,405z"/>
		<path id="P270530230" class="st1" d="M256.7,404.9l-0.9,0.1l0-0.5l-0.6,0l0-0.3l1.4,0L256.7,404.9z"/>
		<path id="P270530210" class="st0" d="M256.9,402.5l2-0.1l0.5,1.4l-0.1,0.2l-0.9-0.9l-1.6,0.1l-0.3-0.7L256.9,402.5z"/>
		<path id="P270530215" class="st0" d="M255,402.6l0.6,0l1,0l0.3,0.7l0.2,0.5l-0.6-0.1l-1.4,0l0-0.3L255,402.6z"/>
		<path id="P270530220" class="st0" d="M257,403.7l0.6,0.2l-0.2,1.1l-0.7-0.1l-0.2-0.8l-1.4,0l0-0.3l0-0.3l1.4,0L257,403.7z"/>
		<path id="P270531505" class="st1" d="M257.3,405.7l0.9,0l0,0.6l-1.3,0L257.3,405.7z"/>
		<path id="P270531520" class="st1" d="M258.3,406.3l0,0.6l0.1,0.7l-1.3-0.1l-0.3-0.8l0.2-0.3L258.3,406.3z"/>
		<path id="P270531510" class="st1" d="M259.3,407l0,0.3l-1-0.4l0-0.6l0-0.6l1.1,0L259.3,407z"/>
		<path id="P270531535" class="st1" d="M258.4,407.6l0,0.5l-0.6,0.2l-0.6,0l0-0.8L258.4,407.6z"/>
		<path id="P270531530" class="st1" d="M259.3,407.3l0.3,0.7l-0.9,0l-0.3,0l0-0.5l-0.1-0.7L259.3,407.3z"/>
		<path id="P270531540" class="st1" d="M257.8,408.2l0,0.8l-0.1,0.6l-0.5,0l0-0.6l0-0.8L257.8,408.2z"/>
		<path id="P270531525" class="st1" d="M258.8,409L258.8,409l-0.9,0l0-0.8l0.6-0.2l0.3,0L258.8,409z"/>
		<path id="P270531515" class="st1" d="M259.7,408l0.3,0.9l-1.2,0l0-0.9L259.7,408z"/>
		<path id="P270531560" class="st1" d="M258.7,409l0,1.2l-0.3,0l-0.6-0.5l-0.1-0.1l0.1-0.6L258.7,409z"/>
		<path id="P270531590" class="st1" d="M259.9,409l0,1.3l-1.2,0l0-1.2l0.1,0L259.9,409z"/>
		<path id="P270531555" class="st1" d="M257.8,409.7l0,1l-0.6,0l0-1.1L257.8,409.7L257.8,409.7z"/>
		<path id="P270531565" class="st2" d="M258.4,410.2l-0.2,0.7l-0.4,0l0-0.2l0-1L258.4,410.2z"/>
		<path id="P270531570" class="st1" d="M257.9,410.8l0,0.2l0,0.6l-0.6,0.1l0-0.7l0-0.2L257.9,410.8z"/>
		<path id="P270531575" class="st1" d="M259.9,410.2l0.1,0.5l-0.4,0.1l-1.4,0.1l0.2-0.7l0.3,0L259.9,410.2z"/>
		<path id="P270531585" class="st1" d="M259.6,410.8l0,0.2l0.2,0.4l-1,0.1l-0.9,0l0-0.6l0.4,0L259.6,410.8z"/>
		<path id="P270531405" class="st1" d="M260.6,407.7l-0.9,0l-0.4-0.4l0-0.3l0.7,0l0.8,0l0.8,0l0,0.9L260.6,407.7z"/>
		<path id="P270531365" class="st1" d="M262.8,407.8l-1.3,0.1l0-0.9l0.8,0l0.5,0L262.8,407.8z"/>
		<path id="P270531370" class="st1" d="M262.8,407.8l0,0.2l0,0.5l-1.3,0.1l0-0.6L262.8,407.8z"/>
		<path id="P270531375" class="st1" d="M262.9,408.9l-0.6,0l-0.6,0l0-0.5l1.3-0.1L262.9,408.9z"/>
		<path id="P270531400" class="st1" d="M261.6,408.9l0,0.5l-0.6,0.2l-0.4-0.7l0-1.3l1,0.2l0,0.6L261.6,408.9z"/>
		<path id="P270531485" class="st1" d="M261,409.6l0,0.6l-1.1,0l0-1.3l0.7,0L261,409.6z"/>
		<path id="P270531395" class="st1" d="M261.6,409.4l0,0.8l-0.6,0l0-0.6L261.6,409.4z"/>
		<path id="P270531385" class="st1" d="M262.2,408.9l0.1,1.1l-0.1,0.2l-0.6,0l0-0.8l0-0.5L262.2,408.9z"/>
		<path id="P270531380" class="st1" d="M264.1,409.5l-0.7,0.4l-1,0.1l-0.1-1.1l0.6,0l0.6,0l0,0.6L264.1,409.5L264.1,409.5z"/>
		<path id="P270531390" class="st1" d="M264.1,411.1l-1.5,0.1l-0.3-0.3l-0.1-0.6l0.1-0.2l1-0.1l0.7-0.4l0,0.4L264.1,411.1z"/>
		<path id="P270531501" class="st1" d="M261.4,410.8l-0.4-0.4l0-0.2l0.6,0l0.6,0l0.1,0.6l-0.3,0l-0.4,0.1L261.4,410.8z"/>
		<path id="P270531480" class="st1" d="M261.2,410.9l-0.8,0.1l-0.4-0.3l-0.1-0.5l1.1,0l0,0.2L261.2,410.9z"/>
		<path id="P270531490" class="st1" d="M260.2,411.4l-0.6-0.4l0-0.2l0.4-0.1l0.4,0.3l0.1,0.2L260.2,411.4z"/>
		<path id="P270531503" class="st0" d="M260.6,411.9l-0.1,0.2l-0.8-0.2l0.1-0.3l0.3,0L260.6,411.9z"/>
		<path id="P270531470" class="st1" d="M261.6,410.9l-0.1,1l-0.6-0.3l-0.4-0.4l-0.1-0.2l0.8-0.1l0.2-0.1L261.6,410.9z"/>
		<path id="P270531420" class="st1" d="M264.1,411.1l0,1.2l-1.2-0.6l-0.3-0.2l-0.4-0.3l-0.3-0.3l0.3,0l0.3,0.3L264.1,411.1z"/>
		<path id="P270531465" class="st1" d="M262.3,411.1l-0.5,0.8l-0.4-0.1l0.1-1l0.4-0.1L262.3,411.1z"/>
		<path id="P270531460" class="st1" d="M262.7,411.4L262,412l-0.1,0l0.5-0.8L262.7,411.4z"/>
		<path id="P270531500" class="st1" d="M261.8,411.9l0,0.2l-0.4,0.6l-0.5-0.3l-0.3-0.4l0.1-0.2l0.2-0.3l0.6,0.3L261.8,411.9z"/>
		<path id="P270531615" class="st1" d="M261.4,412.7l0.4-0.6l0.1,1l-0.2-0.1l-0.5,0L261.4,412.7z"/>
		<path id="P270531440" class="st1" d="M262,412l0.3,0.6l0.2,0.6l-0.5,0l-0.1-1l0-0.2L262,412z"/>
		<path id="P270531425" class="st1" d="M263.2,412.4l-0.4,0.5l-0.5-0.2L262,412l0.7-0.6l0.3,0.2L263.2,412.4z"/>
		<path id="P270531430" class="st1" d="M263,411.7l1.2,0.6l0,0.9l-0.9-0.2l-0.1-0.6L263,411.7z"/>
		<path id="P270531455" class="st1" d="M263.3,412.9L263,413l-0.3-0.2l0.4-0.5L263.3,412.9z"/>
		<path id="P270531435" class="st1" d="M264.2,413.1l0,0.4l0,0.6l-0.3-0.2l-0.4-0.4L263,413l0.2-0.1L264.2,413.1z"/>
		<path id="P270531450" class="st1" d="M263.5,413.5l-0.6,0.1l-0.5-0.4l-0.2-0.6l0.5,0.2l0.3,0.2L263.5,413.5z"/>
		<path id="P270531610" class="st1" d="M262.9,413.6l-0.5,0l-0.6-0.3l-0.1-0.3l0.2,0.1l0.5,0L262.9,413.6z"/>
		<path id="P270531605" class="st1" d="M262.4,413.6l-0.6,0l-0.1-0.1l0.1-0.2L262.4,413.6z"/>
		<path id="P270531625" class="st1" d="M261.8,413.6l-0.3,0.1l-0.4,0l0-0.6l0.2-0.1l0.5,0l0.1,0.3L261.8,413.6z"/>
		<path id="P270531630" class="st1" d="M261,413.1l0,0.6l-0.3,0l-0.5-0.1l0-0.2l0-0.3L261,413.1z"/>
		<path id="P270531620" class="st1" d="M260.3,413.1l0-0.2l0.6-0.5l0.5,0.3l-0.2,0.3l-0.2,0.1L260.3,413.1z"/>
		<path id="P270531670" class="st1" d="M260.3,412.9l-0.7-0.7l0.2-0.4l0.8,0.2l0.3,0.4L260.3,412.9z"/>
		<path id="P270531680" class="st1" d="M259.2,412.9l0-0.5l0.4-0.1l0.7,0.7l0,0.2l-0.4,0L259.2,412.9z"/>
		<path id="P270531642" class="st1" d="M260.3,413.1l0,0.3l-0.5,0l0-0.3l0.1,0L260.3,413.1z"/>
		<path id="P270531635" class="st1" d="M260.8,413.7l0,0.3l-0.5,0l0-0.5L260.8,413.7z"/>
		<path id="P270531640" class="st1" d="M260.8,414l0,0.6l-0.8,0l0.3-0.6L260.8,414z"/>
		<path id="P270531845" class="st1" d="M260,414.7L260,414.7l-0.2-0.6l0-0.3l0-0.3l0.5,0l0,0.2l0,0.5L260,414.7z"/>
		<path id="P270531690" class="st1" d="M259.8,413.4l-0.6,0l0-0.2l0.6-0.2L259.8,413.4z"/>
		<path id="P270531665" class="st1" d="M259.9,413.1L259.9,413.1l-0.7,0.2l0-0.3l0-0.1L259.9,413.1z"/>
		<path id="P270531835" class="st1" d="M259.9,413.7l-0.6,0l0-0.3l0.6,0L259.9,413.7z"/>
		<path id="P270531850" class="st1" d="M260,414.7l-0.7,0l0-0.6l0.6,0L260,414.7z"/>
		<path id="P270531810" class="st1" d="M259.2,414.1l0,0.6l-0.6,0l0.1-0.6L259.2,414.1z"/>
		<path id="P270531805" class="st1" d="M259.2,413l0,0.3l0,0.2l0,0.3l0,0.3l-0.5,0l0.2-0.5L259.2,413z"/>
		<path id="P270531820" class="st1" d="M259.2,414.7l0,0.3l0,0.2l-0.6,0l0-0.5L259.2,414.7z"/>
		<path id="P270531830" class="st1" d="M259.2,415.2l0,0.5l-0.6,0l0-0.5L259.2,415.2z"/>
		<path id="P270531705" class="st1" d="M260,415l0,0.2l0,0.5l-0.8,0l0-0.5l0-0.2L260,415z"/>
		<path id="P270531700" class="st1" d="M260,415l-0.8,0l0-0.3l0.7,0l0.1,0L260,415z"/>
		<path id="P270531750" class="st1" d="M260.8,415.1l0,0.5l-0.8,0l0-0.5L260.8,415.1z"/>
		<path id="P270531760" class="st1" d="M261.4,413.7l0,0.9l-0.2,0l-0.4,0l0-0.6l0-0.3l0.3,0L261.4,413.7z"/>
		<path id="P270531765" class="st1" d="M261.8,413.6L261.8,413.6l0.3,0.4l0.1,0.3l-0.4,0.3l-0.3,0l0-0.9L261.8,413.6z"/>
		<path id="P270531770" class="st1" d="M261.8,414.6l0,0.3l-0.6-0.3l0.2,0L261.8,414.6z"/>
		<path id="P270531775" class="st1" d="M262.2,414.3l0.5,0.9l0.2,0.3l-0.1,0l-0.6,0l-0.3,0l0-0.6l0-0.3L262.2,414.3z"/>
		<path id="P270531755" class="st1" d="M261.8,415.6l-0.9,0l0-0.5l0-0.4l0.4,0l0.6,0.3L261.8,415.6z"/>
		<path id="P270531780" class="st1" d="M261.8,415.6l0,0.3l-1,0l0-0.3L261.8,415.6z"/>
		<path id="P270531735" class="st1" d="M261.8,415.9l0,0.8l-1,0l0-0.5l0-0.3L261.8,415.9z"/>
		<path id="P270531956" class="st1" d="M262.1,416.7l0-1.1l0.6,0l0,1.1L262.1,416.7z"/>
		<path id="P270531445" class="st1" d="M264.2,414.1l0.4,0.4l0.1,0.6l-1.1,0l0-0.5l-0.2-0.6l0.5-0.3L264.2,414.1z"/>
		<path id="P270531410" class="st1" d="M263.6,414.7l-1,0l-0.1-0.6l0.9,0L263.6,414.7z"/>
		<path id="P270531415" class="st1" d="M262.5,414.1L262,414l-0.2-0.3l0.6,0l0.5,0l0.6-0.1l0.4,0.4l-0.5,0.3L262.5,414.1z"/>
		<path id="P270531785" class="st1" d="M262.5,414.1l0.1,0.6l0.3,0.5l-0.3,0l-0.5-0.9L262,414L262.5,414.1z"/>
		<path id="P270531945" class="st1" d="M262.7,416.6l0-1.1l0.1,0l0.2,0.3l0.1,0.3l0.3,0.6l0.1,0.2L262.7,416.6z"/>
		<path id="P270531905" class="st1" d="M264.7,415.8l-0.3-0.3l-0.7,0.3l-0.7,0l-0.2-0.3l-0.2-0.3l0.3,0l0.7,0l1.1,0L264.7,415.8z"/>
		<path id="P270531910" class="st1" d="M264.7,416.1l-1.6,0.1l-0.1-0.3l0.7,0l0.7-0.3l0.3,0.3L264.7,416.1z"/>
		<path id="P270531915" class="st1" d="M264.8,416.4l-0.3,0.3l-1,0l-0.3-0.6l1.6-0.1L264.8,416.4z"/>
		<path id="P270531920" class="st1" d="M264.7,417.2l-0.7,0.2l-0.1,0l-0.3-0.5l-0.1-0.2l1,0l0.3-0.3L264.7,417.2z"/>
		<path id="P270531935" class="st0" d="M264,417.4l0.7-0.2l0,0.7l0.4,0.4l-0.3,0l-0.4-0.3L264,417.4z"/>
		<path id="P270531930" class="st1" d="M264.5,418l-1.1,0.1l0-0.5l0.5-0.2l0.1,0L264.5,418z"/>
		<path id="P270531950" class="st1" d="M263.4,419.1l0-0.7l1,0l0,0.8l-0.5,0.3L263.4,419.1z"/>
		<path id="P270531900" class="st1" d="M263.4,418.2l0,0.2l0,0.7l-0.6,0l0-0.9L263.4,418.2z"/>
		<path id="P270531890" class="st1" d="M261.9,419.2l-0.3,0.5l-0.5,0l-0.1-1.1l0.9,0.2L261.9,419.2z"/>
		<path id="P270531885" class="st1" d="M261.9,417.6l0,1.2l-0.9-0.2l0-0.7L261.9,417.6z"/>
		<path id="P270531895" class="st1" d="M262.8,418.2l0,0.9l-0.9,0.1l0-0.4l0-1.2l0-0.1l0.9,0.1L262.8,418.2z"/>
		<path id="P270531925" class="st1" d="M263.4,417.6l-0.6,0l-0.9-0.1l0-0.8l0.3,0l0.6,0l0.8,0.3l0.3,0.5L263.4,417.6z"/>
		<path id="P270531875" class="st1" d="M260.9,417.9l0-0.1l0-1l0-0.2l1,0l0,0.8l0,0.1L260.9,417.9z"/>
		<path id="P270531710" class="st1" d="M260.1,415.6l0.8,0l0,0.3l0,0.3l-0.8,0L260.1,415.6z"/>
		<path id="P270531715" class="st1" d="M260.9,416.2l0,0.5l0,0.2l-0.8,0l0-0.6L260.9,416.2z"/>
		<path id="P270531720" class="st1" d="M260.9,416.8l0,1l-0.8,0l0-0.6l0-0.3L260.9,416.8z"/>
		<path id="P270531880" class="st1" d="M260.9,418.6l-0.8,0l0-0.8l0.8,0l0,0.1L260.9,418.6z"/>
		<path id="P270531902" class="st1" d="M260.9,418.6l0.1,1.1l-0.4,0l-0.6,0l0.1-0.9l0-0.2L260.9,418.6z"/>
		<path id="P270532000" class="st1" d="M258.4,419.2l0.8,0l-0.3,0.7l-1.4,0l0-0.6L258.4,419.2z"/>
		<path id="P270531995" class="st1" d="M258.4,419.2l-1,0l0-0.6l0.3,0l0.7-0.2L258.4,419.2z"/>
		<path id="P270531990" class="st1" d="M259.3,419.1l-0.8,0l0-0.8l0.3-0.2l0.6,0.1l0,0.5L259.3,419.1z"/>
		<path id="P270531870" class="st1" d="M260.2,418.8l-0.1,0.9l-1.2,0.1l0.3-0.7l0.1-0.3L260.2,418.8z"/>
		<path id="P270531865" class="st0" d="M260.2,417.8l0,0.8l0,0.2l-0.8,0l0-0.5l0-0.4L260.2,417.8z"/>
		<path id="P270531860" class="st1" d="M259.3,417.9l0-0.6l0.8,0l0,0.6L259.3,417.9z"/>
		<path id="P270531730" class="st1" d="M260.1,416.2l0,0.6l0,0.3l-0.8,0l0-0.6l0-0.3L260.1,416.2z"/>
		<path id="P270531725" class="st1" d="M259.3,416.3l0-0.6l0.8,0l0,0.6L259.3,416.3z"/>
		<path id="P270531980" class="st1" d="M258,417.7l-1.3,0l0-0.5l1,0l0.3,0.4L258,417.7z"/>
		<path id="P270532020" class="st0" d="M257.7,418.6l0.1-0.7l0.2-0.2l0-0.1l0.5-0.1l0.1,0.7l-0.3,0.2L257.7,418.6z"/>
		<path id="P270532005" class="st1" d="M259.3,416.6l0,0.6l-0.7,0.2l-0.5,0.1l-0.3-0.4l0.1-0.4l0.1-0.6l0.1,0.2L259.3,416.6z"/>
		<path id="P270531825" class="st1" d="M258,416.2l0.1-0.3l0.2-0.3l0.4,0l0.6,0l0,0.6l0,0.3l-1.1-0.1L258,416.2z"/>
		<path id="P270531827" class="st3" d="M258,416.2l-0.1-0.2l0.2-0.1L258,416.2z"/>
		<path id="P270531815" class="st1" d="M258.6,414.7l0,0.5l0,0.5l-0.4,0l-0.1-1l0,0L258.6,414.7z"/>
		<path id="P270531960" class="st1" d="M258,415.9l-0.2,0.1l-0.5,0.1l-0.6,0l0-0.7l0-0.4l0-0.2l0.8-0.1L258,415.9z"/>
		<path id="P270531817" class="st3" d="M258,415.9l-0.6-1.2l0.7,0l0.1,1L258,415.9z"/>
		<path id="P270531685" class="st1" d="M258.9,413.6l-0.2,0.5l-0.1,0.6l-0.4,0l0-0.2l0.3-0.9L258.9,413.6z"/>
		<path id="P270531655" class="st1" d="M259.2,412.3l0,0.5l0,0.1l-0.3,0.7l-0.4,0l-0.3-0.7l1-0.7L259.2,412.3z"/>
		<path id="P270531645" class="st0" d="M259.1,412.2l-0.9,0.1l-0.6,0.5l-0.9,0l0-0.6l0.6-0.3l0.9,0.3L259.1,412.2z"/>
		<path id="P270531580" class="st1" d="M259.8,411.5l-0.1,0.3l-0.2,0.4l-0.4,0.1l0-0.2l-0.1,0l-0.9,0.1l0.6-0.7L259.8,411.5
			L259.8,411.5z"/>
		<path id="P270531675" class="st0" d="M259.2,412.1l-1,0.7l-1.2,0.3l-0.3,0.6l0-0.5l0-0.1l0-0.3l0.9,0l0.6-0.5l0.9-0.1L259.2,412.1
			z"/>
		<path id="P270531660" class="st0" d="M258.2,414.5l0,0.2l0,0l-0.7,0l-0.8,0.1l0-1l0.3-0.6l0.4,0.1l0,0.8L258.2,414.5z"/>
		<path id="P270532770" class="st0" d="M264,407.6l-0.3,0.3l-0.9,0l0-0.2l0-0.9l1.2-0.1L264,407.6z"/>
		<path id="P270531115" class="st1" d="M253.2,416l0.4,0.8l0.5,0.5l-0.7,0l-1.2,0l-0.3-0.1l0-0.5l0-0.2l0.9,0.2L253.2,416L253.2,416
			z"/>
		<path id="P270531110" class="st1" d="M252,416.5l0.6-0.5l0.7-0.1l-0.3,0.7L252,416.5z"/>
		<path id="P270531130" class="st0" d="M250.8,415.3l0.2-0.4l0.6-0.1l0,0.8l0.6,0.1l0.3,0.3l-0.6,0.5l0,0.2l-0.9-0.1l-0.1-0.2
			l0.1-0.6L250.8,415.3z"/>
		<path id="P270531125" class="st1" d="M251.1,416.6l0.9,0.1l0,0.5l-0.6,0.1L251.1,416.6z"/>
		<path id="P270531120" class="st0" d="M252.3,417.3l0,1.3l-0.8,0l0-0.8l0.5-0.6L252.3,417.3z"/>
		<path id="P270030805" class="st1" d="M260.9,405.8l-0.1,1.1l-0.8,0l0.2-1.1L260.9,405.8z"/>
		<path id="P270030810" class="st1" d="M261.5,406.9l-0.8,0l0.1-1.1l0.6,0l0,0.3L261.5,406.9z"/>
		<path id="P270030815" class="st1" d="M262.3,406.9l-0.8,0l0-0.8l0.7,0L262.3,406.9z"/>
		<path id="P270030825" class="st0" d="M262.8,405.6l0,1.3l-0.5,0l-0.2-0.8l-0.1-0.5L262.8,405.6z"/>
		<path id="P270030835" class="st0" d="M260.9,405.8l0-1.4l0.6,0.2l0,0.2l0,0.2l0,0.6l0,0.1L260.9,405.8z"/>
		<path id="P270030820" class="st1" d="M262,405.7l0.1,0.5l-0.7,0l0-0.3l0-0.1l0-0.6l0-0.2l0.6,0.2L262,405.7z"/>
		<path id="P270030840" class="st1" d="M260.9,405.8l-0.6,0l0.3-0.2l0-1.3l0.3,0L260.9,405.8z"/>
		<path id="P270031820" class="st0" d="M260.5,403.8l0.1,0.6l0,1.3l-0.3,0.2L260,407l-0.7,0l0-1.4l-0.2-0.6l0.2-1l0.8,0l0-0.6
			L260.5,403.8z"/>
		<path id="P270031815" class="st0" d="M260.2,403.5l0,0.6l-0.8,0l0.1-0.2l0-1.5l0.6,0.2L260.2,403.5z"/>
		<path id="P270031615" class="st0" d="M260.5,403.8l-0.3-0.3l-0.2-1l0.4,0l0.3,0.6L260.5,403.8z"/>
		<path id="P270031720" class="st0" d="M262.7,403.4l0,0.9l0,0.3l-0.6,0l0-0.4l-0.7-0.4l0.6-0.4L262.7,403.4z"/>
		<path id="P270031620" class="st0" d="M261.2,403.1l0.3,0.7l0.7,0.4l0,0.4l-0.7,0l-0.6-0.2l-0.3,0l-0.1-0.6l0.3-0.6L261.2,403.1z"
			/>
		<path id="P270031805" class="st1" d="M260.3,400.7l-0.7-0.4l-0.9,0.1l-0.5-0.7l1.2,0l-0.2-0.5l0.8,0l0.2,0l0,0.8L260.3,400.7z"/>
		<path id="P270031810" class="st0" d="M260.3,400.7l0.1,1.5l0,0.4l-0.4,0l-0.6-0.2l0.1-1.2l-0.4-0.6l-0.3-0.2l0.9-0.1L260.3,400.7z
			"/>
		<path id="P270031605" class="st0" d="M260.3,400.7l1-0.1l0.3,1.2l0,0.2l-0.6-0.1l-0.6,0.2L260.3,400.7z"/>
		<path id="P270031610" class="st0" d="M261.6,402l-0.3,0.9l-0.2,0.2l-0.4,0l-0.3-0.6l0-0.4l0.6-0.2L261.6,402z"/>
		<path id="P270031715" class="st0" d="M262.6,402.3l0,0.5l0,0.6l-0.6,0l-0.6,0.4l-0.3-0.7l0.2-0.2L262.6,402.3z"/>
		<path id="P270031710" class="st1" d="M262.6,401.9l0,0.5l-1.3,0.6l0.3-0.9l0-0.2L262.6,401.9z"/>
		<path id="P270033105" class="st0" d="M261.6,400.6l0.1-0.6l0.4-0.9l0.4,0l0,0.7l0,0.4l0,0.4L261.6,400.6z"/>
		<path id="P270033110" class="st0" d="M261.7,400l-0.1,0.6l-0.3,0l-1,0.1l0-0.7L261.7,400z"/>
		<path id="P270531955" class="st1" d="M263.4,418.1l1.1-0.1l0.4,0.3l-0.5,0l-1,0l0-0.2L263.4,418.1z"/>
		<path id="P270531940" class="st1" d="M262.1,415.6l0,1.1l-0.3,0l0-0.8l0-0.3L262.1,415.6z"/>
		<path id="P270531985" class="st0" d="M259.3,417.2l0,0.6l0,0.4l-0.6-0.1l-0.1-0.7L259.3,417.2z"/>
		<path id="P270531595" class="st1" d="M258.8,411.5l-0.6,0.7l-0.9-0.3l0-0.3l0.6-0.1L258.8,411.5z"/>
		<path id="P270531502" class="st1" d="M260.2,411.4L260.2,411.4l-0.3,0.1l-0.1-0.1l-0.2-0.4L260.2,411.4z"/>
		<path id="P270531475" class="st1" d="M261.4,410.8l-0.2,0.1l-0.2-0.5L261.4,410.8z"/>
		<path id="P270531360" class="st1" d="M260.6,407.7l0,1.3l-0.7,0l-0.3-0.9l-0.3-0.7l0.4,0.4L260.6,407.7z"/>
		<path id="P270531456" class="st1" d="M263.6,414.7l0,0.5l-0.7,0l-0.3-0.5L263.6,414.7z"/>
		<path id="P270531495" class="st0" d="M260.6,411.9l-0.5-0.4l0.1-0.1l0.3-0.2l0.4,0.4L260.6,411.9z"/>
		<path id="P270531840" class="st1" d="M259.2,413.8l0.6,0l0,0.3l-0.6,0L259.2,413.8z"/>
		<path id="P270531790" class="st1" d="M260.8,415.1l-0.8,0l0-0.2l0-0.3l0.8,0L260.8,415.1z"/>
		<path id="P270531957" class="st1" d="M263.4,417.6l0,0.5l0,0.2l-0.6,0l0-0.6L263.4,417.6z"/>
		<path id="P270531965" class="st1" d="M257.4,416.8l0-0.6l0.5-0.1l0.1,0.2l-0.1,0.6L257.4,416.8z"/>
		<path id="P270531970" class="st0" d="M257.4,416.8l-0.6,0.2l0-0.7l0-0.2l0.6,0L257.4,416.8z"/>
		<path id="P270531975" class="st1" d="M257.7,417.3l-1,0l0-0.2l0.6-0.2l0.5,0L257.7,417.3z"/>
		<path id="P270532010" class="st1" d="M258,417.7l-0.2,0.2l-0.5,0l0,0.6l-0.5,0l0-0.6l0-0.2L258,417.7z"/>
		<path id="P270532015" class="st1" d="M257.8,417.9l-0.1,0.7l-0.3,0l-0.2,0l0-0.6L257.8,417.9z"/>
	</g>
	<g>
		<path class="st4" d="M224.7,232.8l7.2,0l3.8-0.2l8.9-0.1l7.7-0.2l7.6,0l8.1-0.3l0.4,22.7l0,7.5l0.3,7.6l0.5,1.2l0.5,14l0.4,10.1
			l0.4,12.7l-14,0.3l-9.1,0.8l0.1-2.5l-0.2-5.6l-6.3,0l-15.9,0.8l-0.9-0.9l-0.3-14.4l-0.2-7.6l-0.2-7l2-0.5l-0.1-6l-0.2-12.7
			L224.7,232.8z"/>
		<path class="st4" d="M274.6,373.4l0.3,10.1l0.4,15.2l-12.9,0.3l0.3,7.8l-3.5,0.1l-0.2-2.3l0.3-3.7l-0.9-0.9l-0.8-2.4l-2.7-1.6
			l-0.8-1.2l-1.2-0.5l-2.3-1.7l-0.9-1.4l-2.4-0.8l-1.2,0l-1.7-1.7l-0.3-14.8l7.5-0.1l13.9-0.5L274.6,373.4z"/>
		<path class="st4" d="M79.1,223.8l7.6-0.1l12,0.1l10.1,0l8.9-0.2l15.3-0.1l7.7-0.2l0.1,15.3l0.5-0.1l0.1,15.2l0,7.6l-16.4,0.3
			l-16.7,0.1l-28.1-0.2l-0.1-7.6l0.2-8.9l0-6.2l-1.2,0L79.1,223.8z"/>
		<path class="st4" d="M129.4,102.5l7.7-0.1l0.2,15.1l29.4-0.4l16.7-0.3l0.2,0l0.4,15.3l0.2,15.1l0.4-0.1l0.2,15.2l0.1,8.8l0.4,12.6
			l0.1,1.2l0.1,12.4l0,2.9l-15.2,0.4l-2.6,0.1l-17.9,0l-10.2,0l-0.3-22.8l-0.6,0l-0.1-17.4l-3.1-0.8l-1.2-1.4l-0.7-2.4l0.2-2.7
			l1.5-4l1.1-1.4l-21,0.1l-0.6,0l-0.1-13.3l-0.1-16.7l-0.5,0l-0.1-3.8l0.1-7.6l-0.1-3.7L129.4,102.5z"/>
		<path class="st4" d="M196.8,343.4l-2.1-0.8l-3-3.2l23.5-0.6l12.6-0.1l0.8,23.1l-6.4,0.1l-10.2,0.3l-7.4,0.1l-1.1-1.1l-0.4-1.5
			l-1.2-0.9l-0.8-1.7l0-2.5l0.5-2.1l-1-2.5l-0.8-0.7l0.4-1.6l-1.2-0.3l-1.4-1.1L196.8,343.4z"/>
		<path class="st4" d="M39.3,360.8l22.6,0.2l13.3,0l0.8,0l0,15.2l7.6,0.1l-0.1,2.4l0,12.7l0.9,0l0,5.6l-2.3-1.7l-2,0.2l-2.8-2.3
			l-2,0l-1.7-0.6l-0.3-1.8l-3.4-0.8l-4.1-0.1l-0.9-0.9l-2.1-0.1l0-2.8l-2.2-5l-2-1.6l-1.5-0.4l-4.6-2.5l-3.7-0.2l-1-0.9l-2.1-3.1
			l-1.9-5.6l-1.9-2.7L39.3,360.8z"/>
		<path class="st4" d="M193,476.5l2.5,0.8l0.9,1l1.2,0l3.1,2.4l1.9,0.4l0.5,0.8l4.6,0.5l1,1.2l2.7,1.7l2.5-0.2l2.6-1l-0.9-2.7
			l0.1-3.1l15.3-0.3l0.2,3.8l0.3,14l0.5,16.7l-30.3,0.6l-7.6,0.1l-0.4-23l-0.2-7.7L193,476.5z"/>
		<path class="st4" d="M167.1,460l1.1,1.1l0.9-0.6l1.4,1.4l2,0.5l0.4,1.6l3,1l3.4,1.9l1.4-0.1l1.1,1l3.4,1l1.9,1.7l0.7,1.4l2.4,3.6
			l2.7,0.9l0.2,6l0.2,7.7l-23.3,0.3l-7.7,0.2l-15.1,0.2l-0.1-7.7l-0.5,0l0-7.7l15.1-0.2l-0.2-19l3.4,1.4l0.1,0.9L167.1,460z"/>
		<path class="st4" d="M268.4,254.7l15.3-0.5l7.7-0.5l2.5,0.1l20.4-0.5l0.4,8.8l0.5,0l0.2,2.6l0.6,19l-31,1.1l-15.3,0.4l-0.5-14
			l-0.5-1.2l-0.3-7.6L268.4,254.7z"/>
		<path class="st4" d="M229.4,412.9l0.2,7.6l15.3-0.4l0.2,7.6l-1.3,0l-2.3,0.9l-0.2,1.1l-2.1,1.5l-0.9,2.5l0.9,2.7l-1.3,1.4
			l-1.7-0.1l-2.9,3.4l-1.5,1l-1.8,0.5l-0.1-2.9l-7.5,0.2l0-3.8l-7.6,0.2l-0.3-15.4l-0.3-7.6L229.4,412.9z"/>
		<path class="st4" d="M170.4,200.6l15.2-0.4l0-2.9l1.3,1.5l2.5,0.3l1.6,0.7l12.4-5.9l2.3,1l1.1,2.6l1.9,2.3l-0.6,0.8l-0.1,2.1
			l1,2.3l3.2,1.1l1.2,1.8l1.3,1l1.8,0.2l0.7-1.3l2,0.2l2.9,0.7l2.1,0.1l-0.6,1.1l0,2.7l-1.2,1l0.3,2.4l1.7,0.8l0.3,15.8l0.4,19.9
			l-12.8,0.2L206,253l-3.7-0.1l-11.4,0.1l-0.1,10.2l0.2,5.1l0.9,0l0.2,8.9l0.5,21l-0.8,1.1l-0.6-1.6l-1.2-0.1l-1.8-2l-2.6-1
			l-2.5,1.5l-3.1,1.2l-1.3-0.4l-1.8-1.5l-2.4-0.5l-1.7-1.5l-0.7-0.4l-3.5,0.1l-0.6-1.4l0.2-1.1l-1.9-0.1l-1.2-1l-0.1-9.2l-0.2-11.5
			l-0.3,0l-0.3-15.2l7.7-0.1l-0.2-15.1l-0.3,0l-0.4-30.3l-0.5,0.1L170.4,200.6z"/>
		<path class="st4" d="M137.4,399l0.1,22.9l-14.6,0.2l0.1,12.1l-0.5-0.9l-2.2-1.7l1.6-0.3l-2.4-2.2l-1.5-1l-0.4-0.9l-2.9-1.4
			l-0.1-0.8l-1.6-1.3l-2-2.6l-2.9-0.2l-0.1-1.4l-1-1.3L103,417l-1.2-1.4l-0.1-2.3l-2.2-1.4l-0.5-1.5l-1.6-1.1L92,404l-1.2-1.9
			l-0.8-0.4l-1.5-2.5l27.5,0l15.2-0.2L137.4,399z"/>
		<path class="st4" d="M284.7,345.1l-1.7,1.2l-0.9,7.9l0.4,1.6l0,3l0.7,0.7l3.1,0.5l3-0.7l3,2.3l0,2.3l0.9,0.8l2.1,3.5l1.7,0.8
			l0.4,1.1l-0.1,3.8l-0.8,0.5l-0.8,1.8l-1.6,1.8l0.4,1.5l-0.7,1.3l-2.1,2.3l-16.9,0.5l-0.3-10.1l-0.5-8.9l-0.1-3.8l-7.4,0.2
			l-0.5-15.1L284.7,345.1z"/>
		<path class="st4" d="M40.3,223.6l24.2,0.2l14.5,0l0,15.2l1.2,0l0,6.2l-0.2,8.9l0.1,7.6l0.1,7.7l-6.6-0.1l-13.7,0l-16.8-0.1
			l-0.9-2.1l0-2.1l0.7,0l-0.1-2.8l0.5-1.1l-0.3-4.1l-0.5-1.7l-0.2-3l0.8-0.9l1.1-4.4l-0.4-1.7l0.8-1.1l-0.1-1.6L43,243l-1.7-4.3
			l-0.2-2.1l-0.7-0.6l0.8-2l0.2-1.8l-0.4-2.2l0.5-2.5L41,226l-0.1-1.9L40.3,223.6z"/>
		<path class="st4" d="M139.7,200.7l0.1,7.7l0.8,0l0.1,15.1l-7.7,0.2l-15.3,0.1l0-6.4l0-18.9l-0.1-5.3l-0.1-1.2l-0.1-13.9l-1.5,0
			l-0.1-10.1l-0.2-12.6l-0.1-7.6l21-0.1l-1.1,1.4l-1.5,4l-0.2,2.7l0.7,2.4l1.2,1.4l3.1,0.8l0.1,17.4l0.6,0L139.7,200.7z"/>
		<path class="st4" d="M388.3,188.6l-1.1-21.9l-0.7-15.1l-0.4,0l-0.6-15.3l-0.4,0l-0.6-10.8l3.1-2.8l2.9-1l2.3-1.6l1.2,0.6l1.7-0.2
			l0.7,5.7l1.7-0.5l0.3,1.2l1.5,0l-1.1,2.1l1.3,1.2l1,2.2l1.2,0.3l5.9-1.1l0.8-0.8l2.9-0.9l1.3,2.1l4.1-0.5l1.1-0.9l1.7,0.8l2.1-0.7
			l1.8,1.1l1.7-0.4l2.3-1.1l1,0.4l3.7-1l5.4-0.6l1,0.6l1.4-0.1l4.1,1.4l1.9,3l0.1,1.9l4.1,2l1.8,1.1l1.6,0.1l2.3-1.3l0.5-1.3
			l3.1-0.9l2.6,0.1l1.4,1l0.8-0.5l3.5-0.2l2.6,0.6l1.2,0.7l-1.4,1.1l-1.7-1.3l-1.8,1.7l-0.6,1l-1.7,0.9l-0.3,1.4l-2.3,2.3l-3.2,2.4
			l-7.9,3.3l0.1,0.7l-2.9,2.1l-2.8,1.2l-2.5,0.7l-0.6,0.8l-2.1,0.8l-2.8,0.4l-1.2,1.4l-2.6,0.2l-6.6,3.1l-2.7,0.5l-2.8,0.9l-0.6,0.8
			l-2.2,0.6l-3.3,1.7l-0.5,0.8l-1.7,0.7l-8.9,5.5l-2.5,1.9l-0.7,1l-5.7,4.7l-2.3,2.5l-1.6,1.2L388.3,188.6z"/>
		<path class="st4" d="M124.6,483.3l22.2-0.1l0.5,0l0.1,7.7l15.1-0.2l0.1,6.4l0.2,16.5l-20,0.3l-17.5,0.1l-0.6,0L124.6,483.3z"/>
		<path class="st4" d="M191.8,299.4l0.8-1.1l-0.5-21l-0.2-8.9l-0.9,0l-0.2-5.1l0.1-10.2l11.4-0.1l3.7,0.1l6.3-0.2l12.8-0.2l0.2,12.7
			l0.1,6l-2,0.5l0.2,7l0.2,7.6l0.3,14.4l0.9,0.9l-0.9,0l0.2,7.6l-20.4,0.5l-7.6,0l-6.3,0.2l0.5-1.8l-1.8-3.1l0-1.5l3.1-3.6
			L191.8,299.4z"/>
		<path class="st4" d="M276.1,419.3l0.8,3.1l-0.1,1.5l0.5,1.9l-1,1.9l0.4,1.7l2.2,0.1l1.7,0.6l1.5-1.3l1.1,0.5l2.1,0.1l1.8,2.3
			l1.6-0.4l1.4,0.4l4.5,2.7l0.3,7.4l-3.7,0.1l0.3,7.6l-7.9,0.3l0.1,2.1l-2,1.1l-2.1-0.9l-3.3,0.4l0.1,3.8l-6.4,0.3l-8.8,0.2
			l-0.1-6.3l0-7.7l-2.6,0.1L258,435l-0.7,0l-0.2-6.5l1.3-0.2l1.5-1.2l1.8-0.5l2-2.4l0.8-0.5l0.5-2l1.3-2.1l1.6-0.5l1.4-2.3l4.8-0.1
			l0.7,1.2L276.1,419.3z"/>
		<path class="st4" d="M276.6,480.4l13.9-0.4l8.8-0.2l0.8,20.4l0.3,10.2l-0.7,0l-22.5,0.7l-1-30.7L276.6,480.4z"/>
		<path class="st4" d="M142.9,315l0.1,15.3l0.5,0l-0.1,5.1l0.1,8.9l0,1.3l-22.7,0.2l-15.3-0.1l0-15.3l-0.6,0l-0.1-15.3l16.4-0.1
			L142.9,315z"/>
		<path class="st4" d="M201.4,513.1l30.3-0.6l7.6-0.2L240,543l-12.7,0.3l-25.3,0.5l-0.4-21.7L201.4,513.1z"/>
		<path class="st4" d="M360.3,508.1l1.4,30.5l-13.9,0.7l-31.7,1.3l-0.7-16.6l-0.4-12.8l0-1.3l15.8-0.5l7.6-0.3L360.3,508.1z"/>
		<path class="st4" d="M254.5,511.8l22.6-0.7l0.5,12.9L278,542l-13.9,0.4L240,543l-0.7-30.7L254.5,511.8z"/>
		<path class="st4" d="M276,456.2l-0.1-3.8l3.3-0.4l2.1,0.9l2-1.1l-0.1-2.1l7.9-0.3l-0.3-7.6l3.7-0.1l-0.3-7.4l2,1.7l2.3,2.6
			l2.1,1.2l0.7,0.9l0.1,2l2.6,1.2l0.7-0.2l1.8,3.1l1.5-0.8l1.5,0.8l2.4,0.3l1.4-0.4l2.6,0.6l2.8,0l2,1.2l1,2.3l0.3,1.9l1,1.5l2.6,2
			l-11.8,0.4l0.2,7.7l-7.5,0.3l0.6,15.2l-8.1,0.2l-8.8,0.2l-13.9,0.4L276,456.2z"/>
		<path class="st4" d="M104.8,315.2l0.1,15.3l0.6,0l0,15.3l-15.2,0.1l-15.2,0l0-15.4l-0.7,0l0-7.6l0.1-7.6l21.4,0L104.8,315.2z"/>
		<path class="st4" d="M244.1,388.8l0.6,0l1.7,1.7l1.2,0l2.4,0.8l0.9,1.4l2.3,1.7l1.2,0.5l0.8,1.2l2.7,1.6l0.8,2.4l0.9,0.9l-0.3,3.7
			l0.2,2.3l3.5-0.1l1.2-0.1l0.3,7.3l0.4,0.4l0,3.1l1.6,2.1l-1.3,2.1l-0.5,2l-0.8,0.5l-2,2.4l-1.8,0.5l-1.5,1.2l-1.3,0.2l-3.2,0.5
			l-0.3-0.9l-3.4-1.3l-0.3,0.6l-4.8,0.2l-0.2-7.6l-15.3,0.4l-0.2-7.6l-0.1-7.3l0.5-1.8l1.2-0.1l1-3l2.1-3.2l1.4-0.3l1.4-1.1
			l-1.4-2.4l1.1-1.4l1.4,0l2.9-0.9l1.7-1.3l1.1,0.5L244.1,388.8z"/>
		<path class="st4" d="M360.3,508.1l28.1-1.3l1.6,4.8l1.2,1.5l-0.5,3.8l-0.8,2l0,4.8l0.6,0.6l-0.2,2.8l2.4,2.7l0.1,1.6l-0.6,1.4
			l0.8,2.2l1,1l0.1,1l-14.9,0.7l-17.7,0.8L360.3,508.1z"/>
		<path class="st4" d="M139.7,200.7l10.2,0l17.9,0l2.6-0.1l0,7.7l0.5-0.1l0.4,30.3l0.3,0l0.2,15.1l-7.7,0.1l-15.2,0l-7.6,0.1
			l-0.1-15.2l-0.5,0.1l-0.1-15.3l-0.1-15.1l-0.8,0L139.7,200.7z"/>
		<path class="st4" d="M266.2,345.7l0.5,15.1l7.4-0.2l0.1,3.8l0.5,8.9l-8.9,0.1l-13.9,0.5l-7.5,0.1l-0.4-12.6l-0.5-15.4l7.6,0.1
			L266.2,345.7z"/>
		<path class="st4" d="M184.8,162.3l15.1-0.3l7.6-0.3l15.6-0.2l-0.1-4.6l3,0.1l10.2-0.2l6.5,0.1l21.5-0.4l0.1,6.1l0.3,8.9l1.3,0
			l0.1,9l0.2,1.3l0.1,8.9l-0.1,3.7l0.2,6.3l0.3,1.2l0.1,6.5l0.3,10.1l0.1,6.3l0.6,0l0.2,7.3l-8.1,0.3l-7.6,0l-7.7,0.2l-8.9,0.1
			l-3.8,0.2l-7.2,0l-0.3-15.8l-1.7-0.8l-0.3-2.4l1.2-1l0-2.7l0.6-1.1l-2.1-0.1l-2.9-0.7l-2-0.2l-0.7,1.3l-1.8-0.2l-1.3-1l-1.2-1.8
			L209,205l-1-2.3l0.1-2.1l0.6-0.8l-1.9-2.3l-1.1-2.6l-2.3-1l-12.4,5.9l-1.6-0.7l-2.5-0.3l-1.3-1.5l-0.1-12.4l-0.1-1.2l-0.4-12.6
			L184.8,162.3z"/>
		<path class="st4" d="M125.3,514l17.5-0.1l20-0.3l0.3,0l0.3,30.7l-17.7,0.2l-16.1,0.2l-4.2,0l-0.1-10.1l0.1-12.8L125.3,514z"/>
		<path class="st4" d="M270.5,308l0.4,15.6l-5.4,0.2l0.7,22l-15.2,0.4l-7.6-0.1l-0.7-12.7l-0.2-9l5.3-0.1l-0.4-15.1l9.1-0.8
			L270.5,308z"/>
		<path class="st4" d="M144.3,376l7.7,0l15.2-0.2l0,7.6l0.1,7.6l0.4,0l0.2,15.2l0.1,15.3l-17.8,0.3l-12.7,0.1l-0.1-22.9l-0.1-7.6
			l-0.5,0l-0.1-15.3L144.3,376z"/>
		<path class="st4" d="M67.1,62.6l0,18.2l0,6.3l1,0l-0.2,10l0,5.1l-6.4,0l-24.4-0.1l-14.8-0.3l-0.2-1.2l1.4-2.2l0-1.3l2.1-2.9
			l0.6-2.3L26.1,90l-2-3.9l0-2.1l-1.1-2.4L22.8,79l-1.3-0.8l0.5-3.2l-0.3-1.8l-1.2-0.8l0.6-1.2L20,69.5l-1.3-2.9l-0.2-3.1l0.5-1.4
			l25.2,0.3L67.1,62.6z"/>
		<path class="st4" d="M182.9,87.9l0.8-0.9l1.5-0.1l2.7,0.7l2-0.7l2.8,1.1l0.6,1.1l-0.2,1.7l0.6,0.9l9,0.6l1.5-0.2l2.2,0.4l1.3-0.2
			l3.2,0.7l6.2,0.2l1.6,1.8l1.1,3.4l-0.8,3.4l1.5,1.3l4.9-0.3l1.1,0.3l2.7-0.3l1.3-1.2l0.8,0.8l4.1-0.8l2.4-1.1l2-0.5l0.5-1.8
			l-0.6-1.8l1.6-0.5l2.1-1.5l1.9,0.3l0.9-0.5l0.4-1.3l5.5-1.6l2.8-0.1l1.8,1.6l5.2-0.5l0.3,18.5l0.1,15l0.5,15.2l0.4,0l0.4,7.8
			l0.4,0l0.2,7.6l-21.5,0.4l-6.5-0.1l-10.2,0.2l-3-0.1l0.1,4.6l-15.6,0.2l-7.6,0.3l-15.1,0.3l-0.2-15.2l-0.4,0.1l-0.2-15.1
			l-0.4-15.3l-0.2,0l-0.3-12.6l-0.1-7.6L182.9,87.9z"/>
		<path class="st4" d="M84.4,397l2.9,1.8l1.2,0.4l1.5,2.5l0.8,0.4L92,404l5.3,5.3l1.6,1.1l0.5,1.5l2.2,1.4l0.1,2.3l1.2,1.4l4.2,1.2
			l0,3.9l-6.9,0l-0.1,7.6l-15.2,0.1l-7.6-0.1l-14.7-0.1l0.1-13.9l0.1-26.9l2.1,0.1l0.9,0.9l4.1,0.1l3.4,0.8l0.3,1.8l1.7,0.6l2,0
			l2.8,2.3l2-0.2L84.4,397z"/>
		<path class="st4" d="M384.5,125.5l0.6,10.8l0.4,0l0.6,15.3l0.4,0l0.7,15.1l1.1,21.9l-1.3,0.8l-2.9,4l-1.8,1.3l-2.5,3.6l-2,3.7
			l-1.6,1.5l-0.3,1.5l-2.4,1.9l-3.8,4.5l-0.1,0.9l-1.4,1.4l-1.6,1l-4.1,5.2l-1.5,0.6l-0.8,1.3l-3.3,1.5l-1.2,2.4l-0.9,0.3l-4.1,4.8
			l-0.9,0l-2.2,2.3l-2.5,3.4l-0.7,0.5l-0.2-3.7l-0.2-3.8l-0.1-1.2l-0.1-2.6l-0.1-2.5l0.1-1.3l-0.1-2.6l-0.3-6.3l-0.2-5.1l-0.1-1.2
			l-0.2-3.8l-0.2-3.8l0-2.6l-0.1-2.5l-0.1-2.7l-0.1-2.4l0-1.4l-0.1-1.2l-0.1-1.3l0-0.9l-0.1-1.6l-0.2-2.2l0-0.3l-0.1-1.3l-0.1-0.9
			l-0.1-1.7l-0.1-0.9l-0.2-2.4l-0.2-2.6l-0.2-1.2l0-0.1l-0.2-2.7l0-1l-0.1-1.2l0-0.2l0-1.1l0-0.2l-0.2-3.5l0-3.9l-0.1-1.2l-0.2-3.8
			l-0.1-1.3l-0.3-5l-0.2-3.8l-0.1-3.8l0-2.5l-0.2-5.1l-0.1-1.3l0-0.7l4.9,0.1l0.7,2.5l0,1.7l0.6,0.8l-0.8,2.3l1.2-0.2l1,0.8l1.4-0.2
			l0.9,1.1l3-0.6l1.2,0.8l-0.2,3.9l2-0.5l3.1-1.5l2.2-0.2l1.3,1.7l2.3-0.9l1.1-1.2l1.8-0.4l3-0.2l2.3-1l2-1.7l1.4-2l0.8-0.1l1.1-1.4
			l4.2-3.8L384.5,125.5z"/>
		<path class="st4" d="M130.3,62.6l9.9,0l-0.2-16.9l-0.1-16.6l1.4,1.2l4.1,1.4l2.6-0.3l1.5-1.1l2.2,0l5.7,3.8l2.2,0.3l-0.5,2.4
			l1.7,6.9l0,1.4l1.6,6.7l1.4,1.8l4.1,18.6l-0.5,1.3l0.4,2.5l-1.1,1.4l0.6,1.3l0.3,2.7l2.3,1.8l0.6,1.3l1.3,0.4l1.9,1.7l1.9,0.1
			l1,1.2l4,0.4l1.1,0.4l1.3-0.8l0.2,8.9l0.1,7.6l0.3,12.6l-16.7,0.3l-29.4,0.4l-0.2-15.1l-7.7,0.1l-0.1-15l14.8-0.1l-0.2-18.1
			l-2.7,2.3l-5.6,1.2l-3.1-1.4l-2-3l0.5-1.2l-0.7-3.1L130.3,62.6z"/>
		<path class="st4" d="M245.5,450.8l0.4,16.6l0.3,14.1l-15.2,0.4l-0.2-3.8l-15.3,0.3l-0.6-1.9l1.4-1.5l0.4-1.5l2-1l0.9-2.2l0-2.1
			l-1.1-0.9l0.2-1.8l1.1-2.4l0.7-2.8l0-1.1l1.3-1.6l0.2-1.1l1-1.6l0-1.8l-1.5-1.5L245.5,450.8z"/>
		<path class="st4" d="M62.5,445l8.5,0l14,0.1l0,7.7l0.8,0l0.1,10l0,20.6l-10.5-0.1l-13.1,0l0.2-23L62.5,445z"/>
		<path class="st4" d="M85,445.1l30.5,0l0,7.7l0.6,0l0.1,10l0.1,20.6l-29.5-0.1l-0.9,0l0-20.6l-0.1-10l-0.8,0L85,445.1z"/>
		<path class="st4" d="M199.1,413.4l15.1-0.2l0.3,7.6l0.3,15.4l-15.2,0.2l0.1,7.7l-15.1,0.3l-0.1-7.7l-0.2-14.2l-0.3-1.2l-0.1-7.7
			l7.6,0L199.1,413.4z"/>
		<path class="st4" d="M117.6,193.2l0.1,5.3l0,18.9l0,6.4l-8.9,0.2l-10.1,0l-12-0.1l0.1-17.7l-0.1-12.7l24.3-0.1L117.6,193.2z"/>
		<path class="st4" d="M67.9,102.2l9,0l14.2,0.1l9,0.2l14.1,0.1l0.1,3.7l-0.1,7.6l0.1,3.8l0.5,0l0.1,16.7l-12.7,0.2l-17.7,0
			l-2.5-0.1l-5.2,0.1l-1.2-0.2l-14.2,0l-11.6,0l-16.7-0.1l-10-0.1l-0.2-1.1l1.1-1.8l-0.4-0.8l0.6-3.7l0.8-1.7l-0.5-2l-0.8-0.9
			l0.7-2.6l-1.7-1.9l1.1-0.8l-1.2-1.1l1.5-1.8l-0.7-1l0.3-1.3l-0.6-0.9l1.1-0.9l-0.7-0.8l-0.5-5.8l-0.6-1.2l14.8,0.3l24.4,0.1
			L67.9,102.2z"/>
		<path class="st4" d="M193.8,513.2l7.6-0.1l0.2,9l0.4,21.7l-20.6,0.3l-17.9,0.2l-0.3-30.7L193.8,513.2z"/>
		<path class="st4" d="M198.2,386.6l0.3,3.9l0.2,5.1l0.3,17.8l-7.6,0.2l-7.6,0l0.1,7.7l-15.9,0.2l-0.1-15.3l-0.2-15.2l-0.4,0
			l-0.1-7.6l10.8-0.2l12.7-0.3l0.1,3.9L198.2,386.6z"/>
		<path class="st4" d="M225.1,301.8L241,301l6.3,0l0.2,5.6l-0.1,2.5l0.4,15.1l-5.3,0.1l0.2,9l0.7,12.7l0.5,15.4l-15.3,0.3l-0.8-23.1
			l-0.5-7.7l-0.2-6.4l-2.5,0l-0.4-15.2l-0.2-7.6L225.1,301.8z"/>
		<path class="st4" d="M172.7,293.5l1.7,1.5l2.4,0.5l1.8,1.5l1.3,0.4l3.1-1.2l2.5-1.5l2.6,1l1.8,2l1.2,0.1l0.6,1.6l0,0.7l-3.1,3.6
			l0,1.5l1.8,3.1l-0.5,1.8l6.3-0.2l7.6,0l20.4-0.5l0.4,15.2l2.5,0l0.2,6.4l0.5,7.7l-12.6,0.1l-23.5,0.6l3,3.2l2.1,0.8l-12.2,0.2
			l-10.6,0.3l-0.2-13.9l-0.3,0l0-5.1l-0.4-25.6l-0.3,0L172.7,293.5z"/>
		<path class="st4" d="M277.3,511.2l22.5-0.7l0,1.3l15.2-0.6l0.4,12.8l0.7,16.6l-15.1,0.5L278,542l-0.5-17.9l-0.5-12.9L277.3,511.2z
			"/>
		<path class="st4" d="M86.8,483.3l29.5,0.1l8.3-0.1l0.2,30.7l-17.8,0.1L87.5,514l-0.8,0L86.8,483.3z"/>
		<path class="st4" d="M167.1,460l9.8-0.1l23.3-0.4l20.1-0.4l0,1.1l-0.7,2.8l-1.1,2.4l-0.2,1.8l1.1,0.9l0,2.1l-0.9,2.2l-2,1
			l-0.4,1.5l-1.4,1.5l0.6,1.9l-0.1,3.1l0.9,2.7l-2.6,1l-2.5,0.2l-2.7-1.7l-1-1.2l-4.6-0.5l-0.5-0.8l-1.9-0.4l-3.1-2.4l-1.2,0l-0.9-1
			l-2.5-0.8l-2.7-0.9l-2.4-3.6l-0.7-1.4l-1.9-1.7l-3.4-1l-1.1-1l-1.4,0.1l-3.4-1.9l-3-1l-0.4-1.6l-2-0.5l-1.4-1.4l-0.9,0.6
			L167.1,460z"/>
		<path class="st4" d="M124.7,514l0.6,0l0.1,7.7l-0.1,12.8l0.1,10.1l-2.8,0.1l-25.7,0.1l-9.5,0l-0.1-10.2l0.1-20.6l19.4,0.1
			L124.7,514z"/>
		<path class="st4" d="M86.7,193.4l0.1,12.7l-0.1,17.7l-7.6,0.1l-14.5,0l-24.2-0.2l1-0.5l0-1.4l-1-2.1l0.6-1.2l-0.6-2.1l0.5-1.2
			l-0.7-4l0.8-1.1l-1.3-5.9l0.7-0.4l0.2-1.9l-1.3-1.4l0.4-1.7l-0.4-2.1l0.6-1.7l-0.7-1.1l0.9-0.8l19.9,0.1l12.8,0L86.7,193.4z"/>
		<path class="st4" d="M337.4,486.2l0.9,22.9l-7.6,0.3l-15.8,0.5l0,1.3l-15.2,0.6l0-1.3l0.7,0l-0.3-10.2l-0.8-20.4l8.1-0.2l14.6-0.4
			l0.2,7.6L337.4,486.2z"/>
		<path class="st4" d="M141.3,261.5l0.1,7.7l0.4,0l0.2,22.8l0.1,7.6l0.5,0l0.1,15.4l-21.7,0l-16.4,0.1l-8.9,0l-21.4,0l0-15.2l-0.9,0
			l0-30.6l6.6,0.1l-0.1-7.7l28.1,0.2l16.7-0.1L141.3,261.5z"/>
		<path class="st4" d="M61.2,134.4l14.2,0l1.2,0.2l5.2-0.1l2.5,0.1l17.7,0l12.7-0.2l0.1,13.3l0.6,0l0.1,7.6l-7.5-0.1l-0.1-2.5
			l-15.2,0l-15.3,0.2l-15.3-0.1l0-5.1l-1.1,0L61.2,134.4z"/>
		<path class="st4" d="M269.7,285.1l15.3-0.4l31-1.1l0.4,9.9l0.7,20.2l-1.5,0.5l-0.9,0.9l-0.8,3.8l-1.4,0.2l-2.4-1l-1.9,1.1l-0.6,2
			l-1.2,1.8l-3.2-0.8l-1.4,1.4l-0.1,1.4l-5.2,1.8l-2.2,2.5l-1.9,1.2l-1.8,3l0,1.3l-1.6,1.7l0.6,1.4l-1.3,2.6l-0.3,1.6l-1.5,1.9
			l-1.8,1.3l-18.5,0.6l-0.7-22l5.4-0.2l-0.4-15.6l-0.4-12.7L269.7,285.1z"/>
		<path class="st4" d="M62.3,483.2l13.1,0l10.5,0.1l0.9,0L86.7,514l-10.6,0l-13.9-0.2l0.1-15.5L62.3,483.2z"/>
		<path class="st4" d="M22.9,134.1l10,0.1l16.7,0.1l11.6,0l-0.1,13.3l1.1,0l0,5.1l0,10.1l7.7,0l0,7.6l12.6,0.1l18-0.1l0-7.6l7.6-0.1
			l0-7.6l7.5,0.1l0.2,12.6l0.1,10.1l1.5,0l0.1,13.9l0.1,1.2l-6.5,0.1l-24.3,0.1l-14-0.1l-12.8,0L40,193.1l-0.1-1.2l-1-1.4l1.1-3.3
			l-0.6-0.6l0.6-1.5l-0.2-1.3l-1.5-1.3l-1.1-6.1l-0.9-1.1l-1.2-5.5l-1.7-1.7l0.4-0.6l-1.1-1.7l-0.5-2.3l-1.1-2.8l-0.9-0.3l-0.2-1.9
			l0.5-2.2l-2.2-2.3l-0.4-1.5l0.5-2.5l-0.6-0.4l-0.5-4.3l-1.6-2.3l-0.2-2l-1.6-3.4l-1-0.9L22.9,134.1z"/>
		<path class="st4" d="M143.6,345.6l0.1,15.3l0.5,0l0.1,15.1l-7.6,0.1l-15.1,0.2l-15.2,0.1l-0.1-15.3l-0.6,0l0-15.3l15.3,0.1
			L143.6,345.6z"/>
		<path class="st4" d="M275.4,398.8l2.2-0.1l0.7,20.5l-2.2,0.1l-1.4-1.2l-0.7-1.2l-4.8,0.1l-1.4,2.3l-1.6,0.5l-1.6-2.1l0-3.1
			l-0.4-0.4l-0.3-7.3l-1.2,0.1l-0.3-7.8L275.4,398.8z"/>
		<path class="st4" d="M108,155.2l0,7.6l-7.6,0.1l0,7.6l-18,0.1l-12.6-0.1l0-7.6l-7.7,0l0-10.1l15.3,0.1l15.3-0.2l15.2,0L108,155.2z
			"/>
		<path class="st4" d="M161.7,456.4l0.2,19l-15.1,0.2l0,7.7l-22.2,0.1l-8.3,0.1l-0.1-20.6l-0.1-10l14.6,0l-0.1-13.8l2.9,0.5l0.1,1.5
			l1.4,1.2l1.3,0.2l1.8-0.5l0.8,1.1l3.4,2.9l4.5,2.8l0.3,1.3l1.9,0l3.4,2.5l1.6-0.3l2.2,1.5l2.5,1.2l1-0.5l1.2,0.5L161.7,456.4z"/>
		<path class="st4" d="M137.5,421.9l12.7-0.1l17.8-0.3l15.9-0.2l0.3,1.2l0.2,14.2l-8.2,0.2l0.2,15.3l0.3,0l0.1,7.7l-9.8,0.1
			l-1.9-1.4l-0.1-0.9l-3.4-1.4l-0.8-1.5l-1.2-0.5l-1,0.5l-2.5-1.2l-2.2-1.5l-1.6,0.3L149,450l-1.9,0l-0.3-1.3l-4.5-2.8l-3.4-2.9
			l-0.8-1.1l-1.8,0.5l-1.3-0.2l-1.4-1.2l-0.1-1.5l-2.9-0.5l-2.2-1.3l-0.2-1.1l-2.6-1.6l-1,0.3l-1.5-1.1l-0.1-12.1L137.5,421.9z"/>
		<path class="st4" d="M245.5,450.8l15.2-0.5l0.1,6.3l8.8-0.2l6.4-0.3l0.6,24.3l-0.3,0l-22.7,0.7l-7.5,0.3l-0.3-14.1L245.5,450.8z"
			/>
		<path class="st4" d="M62.2,513.9l13.9,0.2l10.6,0l0.8,0l-0.1,20.6l0.1,10.2L62,544.7L62.2,513.9z"/>
		<path class="st4" d="M67.1,62.6l18.3,0l16,0l28.9-0.1l-0.1,1.5l0.7,3.1l-0.5,1.2l2,3l3.1,1.4l5.6-1.2l2.7-2.3l0.2,18.1l-14.8,0.1
			l0.1,15l-15.3,0.2l-14.1-0.1l-9-0.2l-14.2-0.1l-9,0l0-5.1l0.2-10l-1,0l0-6.3L67.1,62.6z"/>
		<path class="st4" d="M261.8,92.4l6.1,0.1l2-0.6l0.1,1.9l1.2,0.1l12.1,5.5l4.1-0.8l1.4,0.3l0.6,2.6l-0.6,1.2l-3.6,0.5l-0.7,2.8
			l1.5,1.6l1.9,0.6l4.6-0.5l2.3-0.7l1.7-0.1l2,2.5l1.1,0.4l0,1.1l-1.1,2.6l0.4,1.7l2.4,4l1,0.8l2,3.9l0.6,2l3.5-1.4l2-0.5l0.4-1.1
			l-1-0.7l-0.8-2l0.6-4.8l1.5-1.1l3.3,0.7l1.7-0.6l1-1l1.1,0.6l3.2,0.1l2-0.5l0.6,2.1l1,0.8l1.8,0.3l-0.7,2.1l0.5,2.8l1.6,1.4
			l1.2-0.5l0.1,1.8l3.8-0.6l1.6,1.6l0.2,1l2.9-0.6l1.1,1.4l0.1,1.3l0.2,5.1l0,2.5l0.1,3.8l0.2,3.8l0.3,5l0.1,1.3l0.2,3.8l0.1,1.2
			l0,3.9l0.2,3.5l0,0.2l0,1.1l0,0.2l0.1,1.2l0,1l0.2,2.7l0,0.1l0.2,1.2l0.2,2.6l0.2,2.4l0.1,0.9l0.1,1.7l0.1,0.9l0.1,1.3l0,0.3
			l0.2,2.2l0.1,1.6l0,0.9l0.1,1.3l0.1,1.2l0,1.4l0.1,2.4l0.1,2.7l0.1,2.5l0,2.6l0.2,3.8l0.2,3.8l0.1,1.2l0.2,5.1l0.3,6.3l0.1,2.6
			l-0.1,1.3l0.1,2.5l0.1,2.6l0.1,1.2l0.2,3.8l0.2,3.7l-1.4,1.4l-1.4-0.1l-0.8,1l-1.5,0.8l-1.8,1.9l-2.2,1.5l-2.5,2.4l-3.1,2.3
			l-0.9,1.2l-1.5,1.1l-0.1,1.3l3.7,6l-3.5-3.4l-1.6,0.1l-1.2,0.9l-0.4,2.1l-2.6,0l-1,1.3l1.8,1l-1.7,2.3l-0.3,1.3l-3.2,0.1l-1.6-1
			l-0.5,0l-0.4-8.8l-20.4,0.5l-2.5-0.1l-7.7,0.5l-15.3,0.5L268,232l-0.2-7.3l-0.6,0l-0.1-6.3l-0.3-10.1l-0.1-6.5l-0.3-1.2l-0.2-6.3
			l0.1-3.7l-0.1-8.9l-0.2-1.3l-0.1-9l-1.3,0l-0.3-8.9l-0.1-6.1l-0.2-7.6l-0.4,0l-0.4-7.8l-0.4,0l-0.5-15.2l-0.1-15L261.8,92.4z"/>
		<path class="st4" d="M257.1,428.6l0.2,6.5l0.7,0l0.2,7.7l2.6-0.1l0,7.7l-15.2,0.5l-24.2,0.6l1.2-2l-0.4-2.1l2.3-1.5l0.4-1.1
			l1.2-0.2l1.2-1.2l2,0.1l0.9-0.8l1.8-0.5l1.5-1l2.9-3.4l1.7,0.1l1.3-1.4l-0.9-2.7l0.9-2.5l2.1-1.5l0.2-1.1l2.3-0.9l1.3,0l4.8-0.2
			l0.3-0.6l3.4,1.3l0.3,0.9L257.1,428.6z"/>
		<path class="st4" d="M228.7,361.7l15.3-0.3l0.4,12.6l0.3,14.8l-0.6,0l-2-1.6l-0.7-2.9l-1,0.6l-3-0.3l-2.3,0.2l-1.2-0.7l-1.4,0.5
			l-1.2-0.2l-1.7,0.5l-3.2-1.4l-2.1-2.1l-1.7-0.2l-1.5-2l-2.5-2l-1.9,0.7L215,376l-2.6-0.6l-1.2-1.3l-5.8-6.1l0-2.1l-0.7-1l0-2.8
			l7.4-0.1l10.2-0.3L228.7,361.7z"/>
		<path class="st4" d="M184.4,436.7l0.1,7.7l15.1-0.3l-0.1-7.7l15.2-0.2l7.6-0.2l0,3.8l7.5-0.2l0.1,2.9l-0.9,0.8l-2-0.1l-1.2,1.2
			l-1.2,0.2l-0.4,1.1l-2.3,1.5l0.4,2.1l-1.2,2l1.5,1.5l0,1.8l-1,1.6l-0.2,1.1l-1.3,1.6l-20.1,0.4l-23.3,0.4l-0.1-7.7l-0.3,0
			l-0.2-15.3L184.4,436.7z"/>
		<path class="st4" d="M174,343.9l10.6-0.3l12.2-0.2l0.8,2.9l1.4,1.1l1.2,0.3l-0.4,1.6l0.8,0.7l1,2.5l-0.5,2.1l0,2.5l0.8,1.7
			l1.2,0.9l0.4,1.5l1.1,1.1l0,2.8l0.7,1l0,2.1l5.8,6.1l-1.3,1.7l-1,2.1l0.3,1.1l-2,3.4l-2.8,2.5l-0.9-0.1l-0.7-1.4l-4.3,1.1
			l-0.2,1.9l-7.5,0.3l-0.1-3.9l-12.7,0.3l-10.8,0.2l0-7.6L152,376l-7.7,0l-0.1-15.1l-0.5,0l-0.1-15.3l0-1.3l10.1-0.2L174,343.9z"/>
		<path class="st4" d="M276.4,480.5l1,30.7l-0.3,0l-22.6,0.7l-0.8-30.7L276.4,480.5z"/>
		<path class="st4" d="M105.6,345.7l0,15.3l0.6,0l0.1,15.3l-22.8,0l-7.6-0.1l0-15.2l-0.8,0l0-15.3l15.2,0L105.6,345.7z"/>
		<path class="st4" d="M106.4,376.3l15.2-0.1l15.1-0.2l0.1,15.3l0.5,0l0.1,7.6l-6.3,0l-15.2,0.2l-27.5,0l-1.2-0.4l-2.9-1.8l0-5.6
			l-0.9,0l0-12.7l0.1-2.4L106.4,376.3z"/>
		<path class="st4" d="M167.9,291.8l0.6,1.4l3.5-0.1l0.7,0.4l0.1,5.8l0.3,0l0.4,25.6l0,5.1l0.3,0l0.2,13.9l-20.3,0.2l-10.1,0.2
			l-0.1-8.9l0.1-5.1l-0.5,0l-0.1-15.3l-0.1-15.4l-0.5,0l-0.1-7.6L167.9,291.8z"/>
		<path class="st4" d="M74.5,322.7l0,7.6l0.7,0l0,15.4l0,15.3l-13.3,0l-22.6-0.2L38,359l1.2-3.7l4.9-3.6l0.5-0.9l4.8-2.9l1.3-1.2
			l0.8-2.2l2.6-3.4l0.8-0.7l0.6-2l0.8-9l-0.6-1.6l-0.4-5.1L74.5,322.7z"/>
		<path class="st4" d="M325.9,456l1.4,1.2l3.7,1l2.5,0.4l0.7,0.6l3.7,1l1,1.1l5,2.4l2.1,2l1,2.3l-0.3,2l1.5,0.9l0.7,2l-0.3,1.6
			l1.3,3l1.1,0.6l-13.9,0.6l0.3,7.6l-15.1,0.5l-0.2-7.6l-14.6,0.4l-0.6-15.2l7.5-0.3l-0.2-7.7L325.9,456z"/>
		<path class="st4" d="M164.1,253.7l0.3,15.2l0.3,0l0.2,11.5l0.1,9.2l1.2,1l1.9,0.1l-0.2,1.1l-25.8,0.2l-0.2-22.8l-0.4,0l-0.1-7.7
			l0-7.6l7.6-0.1L164.1,253.7z"/>
		<path class="st4" d="M246.2,481.4l7.5-0.3l0.8,30.7l-15.2,0.5l-7.6,0.2l-0.5-16.7l-0.3-14L246.2,481.4z"/>
		<path class="st4" d="M291.9,383.1l-0.9,1.5l0.6,1.5l-0.5,0.9l0.6,2.9l-0.7,1.2l-0.1,1.7l0.9,0.9l0.2,2.7l0.6,3.2l-2.7,2.5
			l-0.7,1.3l1,1.9l1.7,1.8l-0.5,1.8l0.2,2.6l1,1.4l0.3,1.6l-0.5,2.6l-0.9,1.6l0.8,1.5l0,2.8l-1.1,4.3l-1.2,2.2l0.2,2l-1.4-0.4
			l-1.6,0.4l-1.8-2.3l-2.1-0.1l-1.1-0.5l-1.5,1.3l-1.7-0.6l-2.2-0.1l-0.4-1.7l1-1.9l-0.5-1.9l0.1-1.5l-0.8-3.1l2.2-0.1l-0.7-20.5
			l-2.2,0.1l-0.4-15.2L291.9,383.1z"/>
		<path class="st4" d="M193.4,490.2l0.4,23l-30.7,0.4l-0.3,0l-0.2-16.5l-0.1-6.4l7.7-0.2L193.4,490.2z"/>
		<path class="st4" d="M43.3,269.2l16.8,0.1l13.7,0l0,30.6l0.9,0l0,15.2l-0.1,7.6l-19-0.1l1.2-3.7l0-3.4l-1.3-4.3l-0.2-4.4l-0.6-1.1
			l-0.4-4.3l0.3-1l-0.4-5.1l-1.7-2l-2.2-1.8l-0.8-2.8l-1.5-1.1l-0.8-1.5l0.3-2.6l-1.1-1.2l-0.4-2l0.3-0.9l-0.9-2.4l0.3-2.4l-0.8-2.5
			l-0.8-0.1L43.3,269.2z"/>
		<path class="st4" d="M337.4,486.2l-0.3-7.6l13.9-0.6l1.9,1.2l0.8,1.2l2.8,1.4l1.4,1.1l1.3,0.1l1.3,1.1l0.3,1.4l1.7,0.5l2.4,2.9
			l2.7,1.5l1.5,1.5l4.8,0.5l1.7,0.9l2.5,0.4l2.3,3.2l1.4,0.8l1.4,1.7l0.5,1.5l2.4,2.4l0.7,1.8l1.7,1.7l-28.1,1.3l-22,0.9
			L337.4,486.2z"/>
		<path class="st4" d="M211.2,374.2l1.2,1.3l2.6,0.6l1.7,1.8l1.9-0.7l2.5,2l1.5,2l1.7,0.2l2.1,2.1l3.2,1.4l1.7-0.5l1.2,0.2l1.4-0.5
			l1.2,0.7l2.3-0.2l3,0.3l1-0.6l0.7,2.9l2,1.6l-0.2,1.8l-1.1-0.5l-1.7,1.3l-2.9,0.9l-1.4,0l-1.1,1.4l1.4,2.4l-1.4,1.1l-1.4,0.3
			l-2.1,3.2l-1,3l-1.2,0.1l-0.5,1.8l0.1,7.3l-15.2,0.3l-15.1,0.2l-0.3-17.8l-0.2-5.1l-0.3-3.9l0.2-1.9l4.3-1.1l0.7,1.4l0.9,0.1
			l2.8-2.5l2-3.4l-0.3-1.1l1-2.1L211.2,374.2z"/>
		<path class="st4" d="M107.1,418.2l1,1.3l0.1,1.4l2.9,0.2l2,2.6l1.6,1.3l0.1,0.8l2.9,1.4l0.4,0.9l1.5,1l2.4,2.2l-1.6,0.3l2.2,1.7
			l0.5,0.9l1.5,1.1l1-0.3l2.6,1.6l0.2,1.1l2.2,1.3l0.1,13.8l-14.6,0l-0.6,0l0-7.7l-30.5,0L71,445l-8.5,0l0.1-15.4l14.7,0.1l7.6,0.1
			l15.2-0.1l0.1-7.6l6.9,0L107.1,418.2z"/>
	</g>
	<text transform="matrix(4.347826e-02 0 0 4.347826e-02 329.4807 253.3333)" style="font-family:'ArialMT'; font-size:276px;">Duluth</text>
	<text transform="matrix(4.347826e-02 0 0 4.347826e-02 98.8401 363.116)" style="font-family:'ArialMT'; font-size:276px;">Morris</text>
	<text transform="matrix(4.347826e-02 0 0 4.347826e-02 219.7096 487.5107)" style="font-family:'ArialMT'; font-size:276px;">Mankato</text>
	<text transform="matrix(4.347826e-02 0 0 4.347826e-02 315.7028 498.0392)" style="font-family:'ArialMT'; font-size:276px;">Rochester</text>
	<text transform="matrix(4.347826e-02 0 0 4.347826e-02 160.6043 197.9529)" style="font-family:'ArialMT'; font-size:276px;">Bemidji</text>
	<text transform="matrix(4.347826e-02 0 0 4.347826e-02 203.2273 295.2355)" style="font-family:'ArialMT'; font-size:276px;">Brainerd</text>
	<text transform="matrix(4.347826e-02 0 0 4.347826e-02 47.4291 250.5039)" style="font-family:'ArialMT'; font-size:276px;">Moorhead</text>
	<text transform="matrix(4.347826e-02 0 0 4.347826e-02 310.5316 449.6635)" style="font-family:'ArialMT'; font-size:276px;">Red Wing</text>
	<text transform="matrix(4.347826e-02 0 0 4.347826e-02 206.906 364.637)" style="font-family:'ArialMT'; font-size:276px;">St. Cloud</text>
	<text transform="matrix(4.347826e-02 0 0 4.347826e-02 107.1505 463.8958)" style="font-family:'ArialMT'; font-size:276px;">Marshall</text>
</g>
</svg>
